<?xml version="1.0" encoding="utf-8"?>
<!-- Generator: Adobe Illustrator 19.2.1, SVG Export Plug-In . SVG Version: 6.00 Build 0)  -->
<svg version="1.1" id="Layer_1" xmlns="http://www.w3.org/2000/svg" xmlns:xlink="http://www.w3.org/1999/xlink" x="0px" y="0px"
	 viewBox="0 0 48 48" style="enable-background:new 0 0 48 48;" xml:space="preserve">
<style type="text/css">
	.st0{fill:none;stroke:#000000;stroke-width:2;stroke-miterlimit:10;}
</style>
<g>
	<path d="M21.7,23.2c0,0,2.3-0.2,2.3-3c0-2.8-1.9-4.2-4.3-4.2h-7.8v15.7h7.8c0,0,4.8,0.2,4.8-4.6C24.5,27,24.7,23.2,21.7,23.2z
		 M15.3,18.8h4.4c0,0,1.1,0,1.1,1.6c0,1.6-0.6,1.9-1.3,1.9h-4.1V18.8z M19.5,28.9h-4.2v-4.2h4.4c0,0,1.6,0,1.6,2.2
		C21.3,28.7,20.1,28.9,19.5,28.9z M30.9,20c-5.8,0-5.8,6-5.8,6s-0.4,6,5.8,6c0,0,5.1,0.3,5.1-4.2h-2.6c0,0,0.1,1.7-2.4,1.7
		c0,0-2.6,0.2-2.6-2.7h7.8C36.1,26.8,36.9,20,30.9,20z M33.2,24.7h-4.9c0,0,0.3-2.4,2.6-2.4S33.2,24.7,33.2,24.7z M33.8,16.9h-6.2
		v1.9h6.2V16.9z"/>
	<circle class="st0" cx="24" cy="24" r="23"/>
</g>
</svg>
