<?xml version="1.0" encoding="utf-8"?>
<!-- Generator: Adobe Illustrator 19.2.1, SVG Export Plug-In . SVG Version: 6.00 Build 0)  -->
<svg version="1.1" id="Layer_1" xmlns="http://www.w3.org/2000/svg" xmlns:xlink="http://www.w3.org/1999/xlink" x="0px" y="0px"
	 viewBox="0 0 48 48" style="enable-background:new 0 0 48 48;" xml:space="preserve">
<style type="text/css">
	.st0{fill:none;stroke:#000000;stroke-width:2;stroke-miterlimit:10;}
</style>
<g>
	<g>
		<path d="M19,16c0,1.1-0.7,2-2,2c-1.2,0-2-0.9-2-1.9c0-1.1,0.8-2.1,2-2.1S19,14.9,19,16z M15,32h4V19h-4V32z M28.6,19.2
			c-2.1,0-3.3,1.2-3.8,2h-0.1l-0.2-1.7h-3.6c0,1.1,0.1,2.4,0.1,3.9V32h4v-7.1c0-0.4,0-0.7,0.1-1c0.3-0.7,0.8-1.6,1.9-1.6
			c1.4,0,2,1.2,2,2.8V32h4v-7.4C33,20.9,31.1,19.2,28.6,19.2z"/>
	</g>
	<circle class="st0" cx="24" cy="24" r="23"/>
</g>
</svg>
