<?xml version="1.0" encoding="utf-8"?>
<!-- Generator: Adobe Illustrator 19.2.1, SVG Export Plug-In . SVG Version: 6.00 Build 0)  -->
<svg version="1.1" id="Layer_1" xmlns="http://www.w3.org/2000/svg" xmlns:xlink="http://www.w3.org/1999/xlink" x="0px" y="0px"
	 viewBox="0 0 48 48" style="enable-background:new 0 0 48 48;" xml:space="preserve">
<style type="text/css">
	.st0{fill:none;stroke:#000000;stroke-width:2;stroke-miterlimit:10;}
</style>
<g>
	<g>
		<path d="M23.7,22.2c0.2,0.1,0.4,0.1,0.5,0l11.2-5.6c-0.1,0-1.2,0-1.3,0H13.8c-0.1,0-1.2,0-1.3,0L23.7,22.2z"/>
		<path d="M35.4,19.2l-11.3,5.7c-0.2,0.1-0.3,0.1-0.5,0l-10.3-5.4c-0.4-0.2-0.8,0.1-0.8,0.5v9.5c0,1,0.8,1.9,1.9,1.9h19.2
			c1,0,1.9-0.8,1.9-1.9L35.4,19.2L35.4,19.2z"/>
	</g>
	<circle class="st0" cx="24" cy="24" r="23"/>
</g>
</svg>
