<svg id="Layer_1" data-name="Layer 1" xmlns="http://www.w3.org/2000/svg" viewBox="0 0 62 62"><defs><style>.cls-1{fill:#222221;}</style></defs><title>logga</title><path d="M32.85,18.49l2.84-1.07,0,12.44h0.24l5.89-3h0l7.9,14.41H46.46l-6-10.82L35.6,33l0.2,8.26h-3V18.49Z"/><path d="M22.83,25.37a5.92,5.92,0,0,1,4.37,1.95l1.89-2a9.93,9.93,0,0,0-6.63-2.68c-4.15,0-7.37,2.45-8.73,6.71l3.1,0.06A5.89,5.89,0,0,1,22.83,25.37Z"/><path d="M27.57,38.4a6.19,6.19,0,0,1-4.87,2.34c-3,0-5-2.1-6-4.94h-3c1.18,4.26,4.59,7.72,8.89,7.72a8.77,8.77,0,0,0,6.65-3.33Z"/><path d="M31,0A31,31,0,1,0,62,31,31,31,0,0,0,31,0Zm0,58.11A27.11,27.11,0,1,1,58.11,31,27.11,27.11,0,0,1,31,58.11Z"/></svg>